<?xml version="1.0" encoding="UTF-8" standalone="no"?>
<svg
   id="Layer_1"
   data-name="Layer 1"
   viewBox="0 0 175.85216 56.205159"
   version="1.1"
   sodipodi:docname="back.svg"
   width="175.85216"
   height="56.205158"
   inkscape:version="1.2.2 (732a01da63, 2022-12-09, custom)"
   xmlns:inkscape="http://www.inkscape.org/namespaces/inkscape"
   xmlns:sodipodi="http://sodipodi.sourceforge.net/DTD/sodipodi-0.dtd"
   xmlns="http://www.w3.org/2000/svg"
   xmlns:svg="http://www.w3.org/2000/svg"
   xmlns:rdf="http://www.w3.org/1999/02/22-rdf-syntax-ns#"
   xmlns:cc="http://creativecommons.org/ns#"
   xmlns:dc="http://purl.org/dc/elements/1.1/">
  <defs
     id="defs709" />
  <sodipodi:namedview
     id="namedview707"
     pagecolor="#ffffff"
     bordercolor="#000000"
     borderopacity="0.25"
     inkscape:showpageshadow="2"
     inkscape:pageopacity="0.0"
     inkscape:pagecheckerboard="0"
     inkscape:deskcolor="#d1d1d1"
     showgrid="false"
     inkscape:zoom="3.1757812"
     inkscape:cx="110.05166"
     inkscape:cy="22.514145"
     inkscape:window-width="1850"
     inkscape:window-height="1016"
     inkscape:window-x="1990"
     inkscape:window-y="27"
     inkscape:window-maximized="1"
     inkscape:current-layer="Layer_1" />
  <title
     id="title702">hand-finger-pointer-glyph</title>
  <path
     d="m 65.706221,50.528192 c -3.776711,1.163815 -16.937884,4.94734 -21.784525,4.936004 l -16.830967,-0.03768 a 4.0609213,4.0609213 0 1 1 0.01784,-8.120923 l 7.177286,0.01686 a 0.76446557,0.76446557 0 1 0 0.0031,-1.528928 l -11.215212,-0.02456 a 4.0611173,4.0611173 0 1 1 0.02115,-8.122207 l 7.995465,0.01843 a 0.7639237,0.7639237 0 1 0 0.0035,-1.52779 l -11.214117,-0.025 a 4.0609213,4.0609213 0 1 1 0.01784,-8.120925 l 7.997735,0.01745 a 0.76446488,0.76446488 0 0 0 0.0031,-1.528926 L 4.8729222,26.427036 a 4.0621338,4.0621338 0 1 1 0.015742,-8.122765 l 35.6541028,0.08021 a 0.7639237,0.7639237 0 0 0 0.505147,-1.338397 L 30.189274,7.5095251 30.073291,7.3977295 A 4.1142746,4.1142746 0 0 1 28.952269,4.5806264 l 10e-5,-0.027249 A 4.0584961,4.0584961 0 0 1 30.132558,1.70502 c 0.943175,-0.93587917 2.732808,-1.66459204 5.943375,0.170853 4.868984,2.7875719 9.487306,5.831561 13.579126,8.527099 3.042511,2.005019 5.914972,3.899178 8.337926,5.312213 1.550623,0.903331 5.623865,2.789519 7.782695,3.831698 l -0.06875,30.979749 z"
     fill="#434040"
     id="path704"
     style="fill:#ff0000;fill-opacity:1;stroke:#000000;stroke-width:1.48187;stroke-dasharray:none;stroke-opacity:1" />
  <text
     xml:space="preserve"
     style="font-size:23.5246px;text-align:end;text-anchor:end;fill:#ff0000;fill-opacity:1;stroke:#000000;stroke-width:0;stroke-miterlimit:0;stroke-dasharray:none;stroke-opacity:1"
     x="175.85216"
     y="42.072769"
     id="text923"><tspan
       sodipodi:role="line"
       id="tspan921"
       x="175.85216"
       y="42.072769"
       style="stroke-width:0">Retornar</tspan></text>
  <metadata
     id="metadata941">
    <rdf:RDF>
      <cc:Work
         rdf:about="">
        <dc:title>hand-finger-pointer-glyph</dc:title>
      </cc:Work>
    </rdf:RDF>
  </metadata>
</svg>
